<svg xmlns="http://www.w3.org/2000/svg" width="32" height="32" style="shape-rendering:geometricPrecision;text-rendering:geometricPrecision;image-rendering:optimizeQuality;fill-rule:evenodd;clip-rule:evenodd"><path style="opacity:.553" fill="#fda211" d="M4.5-.5h6a144.424 144.424 0 0 1 21 5v11c-.904.709-1.237 1.709-1 3l-2-6a10.521 10.521 0 0 1-3-2.5c-7.746-.798-15.413-.631-23 .5-.432-1.21-1.099-2.21-2-3 .448-3.182 1.782-5.849 4-8z"/><path style="opacity:1" fill="#f8f16c" d="M28.5 9.5c.14-1.624-.527-2.79-2-3.5L9 3.5c-3.759-.407-5.259 1.26-4.5 5-1.15-.291-1.816-1.124-2-2.5C2.976 2.204 5.142.704 9 1.5c6.179.74 12.346 1.573 18.5 2.5 2.879 1.888 3.545 4.388 2 7.5-.797-.457-1.13-1.124-1-2z"/><path style="opacity:1" fill="#8d98eb" d="M28.5 9.5a159.124 159.124 0 0 0-24-1c-.759-3.74.741-5.407 4.5-5L26.5 6c1.473.71 2.14 1.876 2 3.5z"/><path style="opacity:1" fill="#f6ef66" d="M28.5 12.5c.166 5.011 0 10.011-.5 15L25.5 30c-7.333.667-14.667.667-22 0L1 27.5a64.25 64.25 0 0 1 0-16c.383-.556.883-.89 1.5-1 7.587-1.131 15.254-1.298 23-.5a10.521 10.521 0 0 0 3 2.5z"/><path style="opacity:1" fill="#6b67c8" d="M26.5 24.5h-1v-11h-22v11c0 .667-.333 1-1 1-.166-4.346.001-8.68.5-13a66.627 66.627 0 0 1 23 0c.499 3.986.666 7.986.5 12z"/><path style="opacity:.432" fill="#ff9b03" d="M.5 7.5c.901.79 1.568 1.79 2 3-.617.11-1.117.444-1.5 1a64.25 64.25 0 0 0 0 16L3.5 30c7.333.667 14.667.667 22 0l2.5-2.5c.5-4.989.666-9.989.5-15l2 6a247.5 247.5 0 0 0-1.5 11c-.995.566-1.828 1.233-2.5 2h-24c-.79-.901-1.79-1.568-3-2v-19c.904-.709 1.237-1.709 1-3z"/><path style="opacity:1" fill="#28a4b4" d="M25.5 24.5h1c.086.996-.248 1.83-1 2.5l-11.5.5c-4.229-.01-8.062-.677-11.5-2 .667 0 1-.333 1-1 1.105-1.1 2.438-1.767 4-2a14.692 14.692 0 0 1-3 3.5c4.333.667 8.667.667 13 0a14.692 14.692 0 0 1-3-3.5 19.066 19.066 0 0 0 6-1 11.958 11.958 0 0 1 5 3z"/><path style="opacity:1" fill="#85f6d7" d="M14.5 22.5c.79 1.294 1.79 2.46 3 3.5a42.498 42.498 0 0 1-13 0 14.692 14.692 0 0 0 3-3.5c2.333-1.333 4.667-1.333 7 0z"/><path style="opacity:1" fill="#9cb6f7" d="M25.5 24.5a11.958 11.958 0 0 0-5-3 19.066 19.066 0 0 1-6 1c-2.333-1.333-4.667-1.333-7 0-1.562.233-2.895.9-4 2v-11h22v11z"/><path style="opacity:1" fill="#f88121" d="M16.5 14.5c3.638-.763 5.138.57 4.5 4-4.584 1.913-6.085.58-4.5-4z"/></svg>