<svg xmlns="http://www.w3.org/2000/svg" width="32" height="32" style="shape-rendering:geometricPrecision;text-rendering:geometricPrecision;image-rendering:optimizeQuality;fill-rule:evenodd;clip-rule:evenodd"><path style="opacity:.767" fill="#28f09d" d="M.5-.5h21a5.728 5.728 0 0 0 1 3c-1.291-.237-2.291.096-3 1a77.765 77.765 0 0 0-17-1h-3v-2c.667 0 1-.333 1-1z"/><path style="opacity:.895" fill="#24eaa4" d="M-.5 2.5h3v2h-3v-2z"/><path style="opacity:.829" fill="#24eaa4" d="M22.5 2.5v2h-3v-1c.709-.904 1.709-1.237 3-1z"/><path style="opacity:.922" fill="#25eba3" d="M31.5 1.5v3h-8v-3h8z"/><path style="opacity:.834" fill="#22e4ab" d="M-.5 4.5h3v2h-3v-2z"/><path style="opacity:.938" fill="#22e4aa" d="M12.5 7.5h-8v-4h8v4z"/><path style="opacity:.834" fill="#22e4ab" d="M19.5 4.5h3v2h-3v-2zm4 0h3v2h-3v-2zm5 0h3v2h-3v-2z"/><path style="opacity:1" fill="#1fddb2" d="M-.5 6.5h3v3h-3v-3zm20 0h3v3h-3v-3zm4 0h3v3h-3v-3zm5 0h3v3h-3v-3z"/><path style="opacity:.776" fill="#1dd9b7" d="M4.5 7.5h3c.667 1.333 1.333 1.333 2 0h3v4c-2.554-.888-5.221-1.221-8-1v-3z"/><path style="opacity:.751" fill="#1bd6ba" d="M-.5 9.5h3v2h-3v-2zm20 0h3v2h-3v-2zm4 0h3v2h-3v-2zm5 0h3v2h-3v-2z"/><path style="opacity:.267" fill="#1ad3bd" d="M4.5 10.5c2.779-.221 5.446.112 8 1-1.122.656-2.455.99-4 1-1.833-.085-3.166-.752-4-2z"/><path style="opacity:.834" fill="#18cfc2" d="M-.5 11.5h3v3h-3v-3zm20 0h3v3h-3v-3zm4 0h3v3h-3v-3zm5 0h3v3h-3v-3z"/><path style="opacity:.9" fill="#15c9ca" d="M-.5 14.5h3v2h-3v-2z"/><path style="opacity:.98" fill="#15c9ca" d="M4.5 13.5h13v4h-13v-4z"/><path style="opacity:.9" fill="#15c9ca" d="M19.5 14.5h3v2h-3v-2zm4 0h3v2h-3v-2zm5 0h3v2h-3v-2z"/><path style="opacity:.834" fill="#12c3d0" d="M-.5 16.5h3v2h-3v-2zm20 0h3v2h-3v-2zm4 0h3v2h-3v-2zm5 0h3v2h-3v-2z"/><path style="opacity:.834" fill="#0fbed7" d="M-.5 18.5h3v2h-3v-2z"/><path style="opacity:.628" fill="#0fbed7" d="M17.5 20.5h-13c1.723-1.3 3.89-1.967 6.5-2 2.61.033 4.777.7 6.5 2z"/><path style="opacity:.834" fill="#0fbed7" d="M19.5 18.5h3v2h-3v-2z"/><path style="opacity:.834" fill="#0fbdd8" d="M23.5 18.5h3v3h-3v-3z"/><path style="opacity:.834" fill="#0fbed7" d="M28.5 18.5h3v2h-3v-2z"/><path style="opacity:.834" fill="#0cb8dd" d="M-.5 20.5h3v2h-3v-2z"/><path style="opacity:.267" fill="#0cb9dc" d="M4.5 20.5h13c-1.723 1.3-3.89 1.967-6.5 2-2.61-.033-4.777-.7-6.5-2z"/><path style="opacity:.834" fill="#0cb8dd" d="M19.5 20.5h3v2h-3v-2zm9 0h3v2h-3v-2z"/><path style="opacity:.787" fill="#0ab2e3" d="M-.5 22.5h3v3a5.728 5.728 0 0 0-3-1v-2zm20 0h3v3a5.728 5.728 0 0 0-3-1v-2z"/><path style="opacity:.786" fill="#0bb4e3" d="M23.5 21.5h3c.506 1.605 1.173 1.939 2 1h3v2c-2.333 1.333-4.667 1.333-7 0-.904-.709-1.237-1.709-1-3z"/><path style="opacity:1" fill="#09b0e7" d="M12.5 25.5h-8c.834-1.248 2.167-1.915 4-2 1.833.085 3.166.752 4 2z"/><path style="opacity:.834" fill="#07adea" d="M-.5 24.5a5.728 5.728 0 0 1 3 1v1h-3v-2zm20 0a5.728 5.728 0 0 1 3 1v1h-3v-2z"/><path style="opacity:.797" fill="#07aeea" d="M24.5 24.5c2.333 1.333 4.667 1.333 7 0v1c-.667 0-1 .333-1 1h-5c-.838-.342-1.172-1.008-1-2z"/><path style="opacity:.25" fill="#07aaee" d="M4.5 25.5h8c-.834 1.248-2.167 1.915-4 2-1.833-.085-3.166-.752-4-2z"/><path style="opacity:.591" fill="#04a8f1" d="M25.5 26.5h5c-.432 1.21-1.099 2.21-2 3-.342-.838-1.008-1.172-2-1-.838-.342-1.172-1.008-1-2z"/><path style="opacity:.596" fill="#03a6f3" d="M-.5 26.5h3c2.243 1.312 4.91 1.978 8 2l8-.5c.556-.383.89-.883 1-1.5h3c.237 1.291-.096 2.291-1 3h-22v-3z"/><path style="opacity:.758" fill="#02a3f8" d="M26.5 28.5c.992-.172 1.658.162 2 1v2h-1a5.728 5.728 0 0 1-1-3z"/><path style="opacity:.915" fill="#019ffa" d="M-.5 30.5v-1h22v2H.5c0-.667-.333-1-1-1z"/></svg>